# xmcd
# Track frame offsets:
# 150
# 15267
# 31981
# 53718
# 74922
# 92025
# 109601
# 125404
# 145917
# 162921
# 179703
# 199323
# 216149
# 232985
# 258940
# 284693
# 305050
#
# Disc length: 4290 seconds
# Revision: 0
# Processed by: cddbd v1.5.2PL0 Copyright (c) Steve Scherf et al.
# Submitted via: VisiTrax 2.10.3.257 - For more info visit www.synapsa.com
#
DISCID=fe10c011
DTITLE=Bentley, Dierks - Dierks Bentley: Greatest Hits: Every Mile A Memory 2
DTITLE=003-2008
DYEAR=2008
DGENRE=Country
TTITLE0=Free And Easy (Down The Road I Go)
TTITLE1=Trying To Stop Your Leaving
TTITLE2=Sweet and Wild
TTITLE3=Come A Little Closer
TTITLE4=How Am I Doin'
TTITLE5=Every Mile A Memory
TTITLE6=My Last Name
TTITLE7=Lot Of Leavin' Left To Do
TTITLE8=With The Band
TTITLE9=Settle For A Slowdown
TTITLE10=What Was I Thinkin'
TTITLE11=Long Trip Alone
TTITLE12=So So Long [Live]
TTITLE13=Come A Little Closer [Live]
TTITLE14=Lot Of Leavin' Left To Do [Live]
TTITLE15=Wish It Would Break [Live]
TTITLE16=Free And Easy [Live]
EXTD=
EXTT0=
EXTT1=
EXTT2=
EXTT3=
EXTT4=
EXTT5=
EXTT6=
EXTT7=
EXTT8=
EXTT9=
EXTT10=
EXTT11=
EXTT12=
EXTT13=
EXTT14=
EXTT15=
EXTT16=
PLAYORDER=
